<?xml version="1.0" standalone="no"?>
<!DOCTYPE svg PUBLIC "-//W3C//DTD SVG 20010904//EN"
 "http://www.w3.org/TR/2001/REC-SVG-20010904/DTD/svg10.dtd">
<svg version="1.0" xmlns="http://www.w3.org/2000/svg"
 width="512.000000pt" height="512.000000pt" viewBox="0 0 512.000000 512.000000"
 preserveAspectRatio="xMidYMid meet">
<metadata>
Created by potrace 1.13, written by Peter Selinger 2001-2015
</metadata>
<g transform="translate(0.000000,512.000000) scale(0.100000,-0.100000)"
fill="#000000" stroke="none">
<path d="M2962 4069 c-72 -12 -174 -54 -249 -101 -106 -67 -157 -133 -318
-413 -160 -279 -170 -306 -128 -363 48 -65 133 -78 187 -29 14 12 84 126 157
252 160 280 184 313 260 364 112 75 232 78 369 10 181 -91 258 -258 204 -440
-15 -48 -334 -616 -439 -779 -46 -73 -99 -120 -170 -151 -96 -42 -196 -36
-327 22 -50 22 -77 29 -99 24 -43 -10 -87 -51 -100 -94 -10 -32 -8 -45 9 -83
17 -38 29 -50 81 -76 182 -91 428 -79 621 31 30 17 87 62 125 101 64 64 94
110 288 448 263 455 269 470 268 648 -1 281 -170 526 -421 610 -75 25 -233 35
-318 19z"/>
<path d="M965 3311 c-16 -10 -182 -171 -367 -358 l-338 -339 0 -54 0 -54 347
-348 c379 -380 386 -385 460 -357 67 26 103 111 72 172 -6 12 -138 149 -292
305 l-282 282 282 283 c154 155 286 292 292 304 29 58 -3 143 -64 169 -46 19
-74 18 -110 -5z"/>
<path d="M4043 3315 c-59 -26 -91 -111 -62 -168 6 -12 138 -149 292 -304 l282
-283 -282 -282 c-154 -156 -286 -293 -292 -305 -31 -61 5 -146 72 -172 74 -28
81 -23 460 357 l347 348 0 54 0 54 -342 344 c-191 192 -357 350 -375 358 -40
17 -59 17 -100 -1z"/>
<path d="M2305 2955 c-81 -17 -172 -56 -239 -100 -107 -71 -150 -131 -380
-528 -119 -206 -226 -401 -237 -433 -33 -92 -38 -276 -10 -377 94 -344 387
-529 729 -462 106 21 246 91 321 161 68 62 89 95 261 392 133 233 144 265 103
320 -48 65 -133 78 -188 29 -13 -12 -83 -125 -156 -252 -72 -126 -147 -251
-165 -276 -44 -61 -124 -114 -202 -135 -55 -15 -73 -16 -134 -6 -145 25 -283
130 -328 249 -26 69 -26 171 -1 244 17 51 386 700 451 794 36 52 92 98 157
128 38 17 66 22 133 22 76 0 95 -5 174 -38 99 -42 126 -42 176 0 44 37 56 92
31 147 -16 37 -28 48 -82 75 -117 57 -280 76 -414 46z"/>
</g>
</svg>
